<svg width="100" height="100" viewBox="0 0 100 100" fill="none" xmlns="http://www.w3.org/2000/svg">
<rect width="100" height="100" rx="50" fill="#0C0C0C"/>
<path d="M36.0969 53.08H35.8729H36.0969L39.0649 40.816L41.4729 31.8H48.4729L50.9929 71H43.6569L42.5929 49.608H42.3129L38.2809 65.4H33.6889L29.6569 49.608H29.3769L28.3129 71H20.9769L23.4969 31.8H30.4969L32.9049 40.816L35.8729 53.08H36.0969ZM55.5044 71V31.8H71.4644C73.2937 32.472 74.9177 33.648 76.3364 35.328C77.7551 37.008 78.4644 39.0427 78.4644 41.432C78.4644 45.6507 77.0831 48.6 74.3204 50.28V50.504C77.7551 52.408 79.4724 55.3947 79.4724 59.464C79.4724 64.1307 77.1017 67.976 72.3604 71H55.5044ZM63.1204 47.984H68.6644C70.3071 46.976 71.1284 45.4453 71.1284 43.392C71.1284 41.3387 70.3631 39.7147 68.8324 38.52H63.1204V47.984ZM63.1204 64.504H68.8884C69.5604 64.0187 70.1577 63.2533 70.6804 62.208C71.2404 61.1627 71.5204 60.1173 71.5204 59.072C71.5204 58.0267 71.2964 57.0747 70.8484 56.216C70.4004 55.3573 69.8404 54.7227 69.1684 54.312H63.1204V64.504Z" fill="white"/>
</svg>
